<svg viewBox="0 0 2732 2732" xmlns="http://www.w3.org/2000/svg">
  <defs>
    <linearGradient id="bg" x1="0" y1="0" x2="1" y2="1">
      <stop offset="0%" stop-color="#1E1B4B"/>
      <stop offset="60%" stop-color="#3730A3"/>
      <stop offset="100%" stop-color="#4338CA"/>
    </linearGradient>
  </defs>

  <rect width="2732" height="2732" fill="url(#bg)"/>

  <g transform="translate(1166, 1056) scale(4)">
    <rect x="48" y="56" width="104" height="92" rx="14" fill="white"/>
    <rect x="48" y="56" width="104" height="28" rx="14" fill="#4338CA"/>
    <rect x="48" y="74" width="104" height="10" fill="#4338CA"/>
    <rect x="68" y="44" width="8" height="22" rx="4" fill="#1E1B4B"/>
    <rect x="124" y="44" width="8" height="22" rx="4" fill="#1E1B4B"/>
    <circle cx="72" cy="100" r="7" fill="#E2E8F0"/>
    <circle cx="100" cy="100" r="7" fill="#E2E8F0"/>
    <circle cx="128" cy="100" r="7" fill="#E2E8F0"/>
    <circle cx="72" cy="122" r="7" fill="#E2E8F0"/>
    <path d="M90 122 L100 132 L130 100" fill="none" stroke="#16A34A" stroke-width="9" stroke-linecap="round" stroke-linejoin="round"/>
  </g>

  <g transform="translate(1244, 1696) scale(2.6)">
    <g transform="translate(46,28)">
      <circle r="16" fill="#2563EB"/>
      <path d="M-7 -6 L-7 6 L0 3 L7 6 L7 -6 L0 -3 Z" fill="white"/>
    </g>
    <g transform="translate(86,28)">
      <circle r="16" fill="#16A34A"/>
      <rect x="-9" y="-2.5" width="18" height="5" rx="2" fill="white"/>
      <rect x="-12" y="-5" width="4" height="10" rx="1.5" fill="white"/>
      <rect x="8" y="-5" width="4" height="10" rx="1.5" fill="white"/>
    </g>
    <g transform="translate(126,28)">
      <circle r="16" fill="#F59E0B"/>
      <circle r="6" fill="white"/>
      <g stroke="white" stroke-width="2" stroke-linecap="round">
        <line x1="0" y1="-10" x2="0" y2="-8"/>
        <line x1="0" y1="8" x2="0" y2="10"/>
        <line x1="-10" y1="0" x2="-8" y2="0"/>
        <line x1="8" y1="0" x2="10" y2="0"/>
        <line x1="-7" y1="-7" x2="-5.5" y2="-5.5"/>
        <line x1="5.5" y1="5.5" x2="7" y2="7"/>
        <line x1="-7" y1="7" x2="-5.5" y2="5.5"/>
        <line x1="5.5" y1="-5.5" x2="7" y2="-7"/>
      </g>
    </g>
    <g transform="translate(166,28)">
      <circle r="16" fill="#DC2626"/>
      <path d="M-7 2 Q0 12 7 2 Z" fill="white"/>
      <path d="M-6 1 Q0 -8 6 1" fill="none" stroke="white" stroke-width="2"/>
    </g>
  </g>
</svg>
